<?xml version="1.0" encoding="UTF-8" standalone="no"?>
<!-- Created with Inkscape (http://www.inkscape.org/) -->

<svg
   xmlns:dc="http://purl.org/dc/elements/1.1/"
   xmlns:cc="http://creativecommons.org/ns#"
   xmlns:rdf="http://www.w3.org/1999/02/22-rdf-syntax-ns#"
   xmlns:svg="http://www.w3.org/2000/svg"
   xmlns="http://www.w3.org/2000/svg"
   xmlns:sodipodi="http://sodipodi.sourceforge.net/DTD/sodipodi-0.dtd"
   xmlns:inkscape="http://www.inkscape.org/namespaces/inkscape"
   version="1.1"
   id="svg2106"
   xml:space="preserve"
   width="357.5957"
   height="183.72594"
   viewBox="0 0 357.5957 183.72594"
   sodipodi:docname="trapezoidal-rule.svg"
   inkscape:version="0.92.4 5da689c313, 2019-01-14"><metadata
     id="metadata2112"><rdf:RDF><cc:Work
         rdf:about=""><dc:format>image/svg+xml</dc:format><dc:type
           rdf:resource="http://purl.org/dc/dcmitype/StillImage" /><dc:title></dc:title></cc:Work></rdf:RDF></metadata><defs
     id="defs2110" /><sodipodi:namedview
     pagecolor="#ffffff"
     bordercolor="#666666"
     borderopacity="1"
     objecttolerance="10"
     gridtolerance="10"
     guidetolerance="10"
     inkscape:pageopacity="0"
     inkscape:pageshadow="2"
     inkscape:window-width="899"
     inkscape:window-height="480"
     id="namedview2108"
     showgrid="false"
     inkscape:zoom="1.0934136"
     inkscape:cx="178.79785"
     inkscape:cy="91.862968"
     inkscape:window-x="259"
     inkscape:window-y="60"
     inkscape:window-maximized="0"
     inkscape:current-layer="g2114" /><g
     id="g2114"
     inkscape:groupmode="layer"
     inkscape:label="trapezoidal-rule"
     transform="matrix(1.3333333,0,0,1.3333333,0,2.5931483e-6)"><g
       id="g2116"><g
         id="g2118"
         transform="scale(0.997361,1)"><path
           d="M 267.158,120.801 H 29.978"
           style="fill:none;stroke:#000000;stroke-width:0.89999998;stroke-linecap:butt;stroke-linejoin:miter;stroke-miterlimit:4;stroke-dasharray:none;stroke-opacity:1"
           id="path2120"
           inkscape:connector-curvature="0" /></g><g
         id="g2122"
         transform="scale(-0.997361,-1)"><path
           d="m -258.158,-120.801 3.599,-3.601 -12.599,3.601 12.599,3.598 z"
           style="fill:#000000;fill-opacity:1;fill-rule:evenodd;stroke:#000000;stroke-width:0.95999998;stroke-linecap:butt;stroke-linejoin:miter;stroke-miterlimit:4;stroke-dasharray:none;stroke-opacity:1"
           id="path2124"
           inkscape:connector-curvature="0" /></g><g
         id="g2126"
         transform="scale(1,0.99611)"><path
           d="M 30.059,1.749 V 121.578"
           style="fill:none;stroke:#000000;stroke-width:0.89999998;stroke-linecap:butt;stroke-linejoin:miter;stroke-miterlimit:4;stroke-dasharray:none;stroke-opacity:1"
           id="path2128"
           inkscape:connector-curvature="0" /></g><g
         id="g2130"
         transform="matrix(0,0.99611,-1,0,0,0)"><path
           d="m 10.749,-30.059 3.6,-3.601 -12.6,3.601 12.6,3.602 z"
           style="fill:#000000;fill-opacity:1;fill-rule:evenodd;stroke:#000000;stroke-width:0.95999998;stroke-linecap:butt;stroke-linejoin:miter;stroke-miterlimit:4;stroke-dasharray:none;stroke-opacity:1"
           id="path2132"
           inkscape:connector-curvature="0" /></g><g
         id="g2134"><path
           d="m 30.129,32.781 c 0,0 5.66,4.985 14.789,11.774 21.394,15.906 61.84,41.73 93.148,36.597 44.668,-7.324 77.911,-46.613 118.707,-38.988"
           style="fill:none;stroke:#ff0000;stroke-width:1.86366904;stroke-linecap:butt;stroke-linejoin:miter;stroke-miterlimit:4;stroke-dasharray:none;stroke-opacity:1"
           id="path2136"
           inkscape:connector-curvature="0" /></g><g
         id="g2138"><path
           d="M 53.82,121.398 V 50.727"
           style="fill:none;stroke:#0000ff;stroke-width:1.64999998;stroke-linecap:butt;stroke-linejoin:miter;stroke-miterlimit:4;stroke-dasharray:none;stroke-opacity:1"
           id="path2140"
           inkscape:connector-curvature="0" /></g><g
         id="g2142"><path
           d="M 81.73,121.223 V 67.336"
           style="fill:none;stroke:#0000ff;stroke-width:1.64999998;stroke-linecap:butt;stroke-linejoin:miter;stroke-miterlimit:4;stroke-dasharray:none;stroke-opacity:1"
           id="path2144"
           inkscape:connector-curvature="0" /></g><g
         id="g2146"><path
           d="M 109.645,121.039 V 78.617"
           style="fill:none;stroke:#0000ff;stroke-width:1.64999998;stroke-linecap:butt;stroke-linejoin:miter;stroke-miterlimit:4;stroke-dasharray:none;stroke-opacity:1"
           id="path2148"
           inkscape:connector-curvature="0" /></g><g
         id="g2150"><path
           d="M 193.383,121.152 V 58.203"
           style="fill:none;stroke:#0000ff;stroke-width:1.64999998;stroke-linecap:butt;stroke-linejoin:miter;stroke-miterlimit:4;stroke-dasharray:none;stroke-opacity:1"
           id="path2152"
           inkscape:connector-curvature="0" /></g><g
         id="g2154"><path
           d="M 137.559,120.59 V 80.828"
           style="fill:none;stroke:#0000ff;stroke-width:1.64999998;stroke-linecap:butt;stroke-linejoin:miter;stroke-miterlimit:4;stroke-dasharray:none;stroke-opacity:1"
           id="path2156"
           inkscape:connector-curvature="0" /></g><g
         id="g2158"><path
           d="M 165.469,120.418 V 72.262"
           style="fill:none;stroke:#0000ff;stroke-width:1.64999998;stroke-linecap:butt;stroke-linejoin:miter;stroke-miterlimit:4;stroke-dasharray:none;stroke-opacity:1"
           id="path2160"
           inkscape:connector-curvature="0" /></g><g
         id="g2162"><path
           d="m 53.438,51.141 28.402,16.793 27.781,11.195 27.781,2.281 27.989,-8.707 27.781,-13.683"
           style="fill:none;stroke:#0000ff;stroke-width:1.64999998;stroke-linecap:butt;stroke-linejoin:miter;stroke-miterlimit:4;stroke-dasharray:none;stroke-opacity:1"
           id="path2164"
           inkscape:connector-curvature="0" /></g><g
         id="g2166"
         transform="scale(0.961239,1)"><path
           d="m 58.912,50.828 c 0,1.477 -1.198,2.676 -2.674,2.676 -1.479,0 -2.674,-1.199 -2.674,-2.676 0,-1.476 1.195,-2.676 2.674,-2.676 1.476,0 2.674,1.2 2.674,2.676 z"
           style="fill:#0000ff;fill-opacity:1;fill-rule:nonzero;stroke:#0000ff;stroke-width:0.55453002;stroke-linecap:butt;stroke-linejoin:miter;stroke-miterlimit:4;stroke-dasharray:none;stroke-opacity:1"
           id="path2168"
           inkscape:connector-curvature="0" /></g><g
         id="g2170"
         transform="scale(0.961239,1)"><path
           d="m 87.814,67.52 c 0,1.476 -1.199,2.671 -2.674,2.671 -1.479,0 -2.674,-1.195 -2.674,-2.671 0,-1.477 1.195,-2.676 2.674,-2.676 1.475,0 2.674,1.199 2.674,2.676 z"
           style="fill:#0000ff;fill-opacity:1;fill-rule:nonzero;stroke:#0000ff;stroke-width:0.55453002;stroke-linecap:butt;stroke-linejoin:miter;stroke-miterlimit:4;stroke-dasharray:none;stroke-opacity:1"
           id="path2172"
           inkscape:connector-curvature="0" /></g><g
         id="g2174"
         transform="scale(0.961239,1)"><path
           d="m 116.931,78.715 c 0,1.476 -1.199,2.672 -2.674,2.672 -1.475,0 -2.674,-1.196 -2.674,-2.672 0,-1.477 1.199,-2.676 2.674,-2.676 1.475,0 2.674,1.199 2.674,2.676 z"
           style="fill:#0000ff;fill-opacity:1;fill-rule:nonzero;stroke:#0000ff;stroke-width:0.55453002;stroke-linecap:butt;stroke-linejoin:miter;stroke-miterlimit:4;stroke-dasharray:none;stroke-opacity:1"
           id="path2176"
           inkscape:connector-curvature="0" /></g><g
         id="g2178"
         transform="scale(0.961239,1)"><path
           d="m 145.832,80.785 c 0,1.481 -1.194,2.676 -2.674,2.676 -1.475,0 -2.674,-1.195 -2.674,-2.676 0,-1.476 1.199,-2.672 2.674,-2.672 1.48,0 2.674,1.196 2.674,2.672 z"
           style="fill:#0000ff;fill-opacity:1;fill-rule:nonzero;stroke:#0000ff;stroke-width:0.55453002;stroke-linecap:butt;stroke-linejoin:miter;stroke-miterlimit:4;stroke-dasharray:none;stroke-opacity:1"
           id="path2180"
           inkscape:connector-curvature="0" /></g><g
         id="g2182"
         transform="scale(0.961239,1)"><path
           d="m 174.949,72.078 c 0,1.477 -1.195,2.676 -2.674,2.676 -1.475,0 -2.674,-1.199 -2.674,-2.676 0,-1.476 1.199,-2.672 2.674,-2.672 1.479,0 2.674,1.196 2.674,2.672 z"
           style="fill:#0000ff;fill-opacity:1;fill-rule:nonzero;stroke:#0000ff;stroke-width:0.55453002;stroke-linecap:butt;stroke-linejoin:miter;stroke-miterlimit:4;stroke-dasharray:none;stroke-opacity:1"
           id="path2184"
           inkscape:connector-curvature="0" /></g><g
         id="g2186"
         transform="scale(0.961239,1)"><path
           d="m 203.851,58.812 c 0,1.477 -1.195,2.672 -2.674,2.672 -1.475,0 -2.674,-1.195 -2.674,-2.672 0,-1.48 1.199,-2.675 2.674,-2.675 1.479,0 2.674,1.195 2.674,2.675 z"
           style="fill:#0000ff;fill-opacity:1;fill-rule:nonzero;stroke:#0000ff;stroke-width:0.55453002;stroke-linecap:butt;stroke-linejoin:miter;stroke-miterlimit:4;stroke-dasharray:none;stroke-opacity:1"
           id="path2188"
           inkscape:connector-curvature="0" /></g><path
         d="m 245.973,136.453 h 1.687 l 1.891,-2.293 c 0.5,-0.625 0.953,-1.191 1.375,-1.769 h 0.078 c 0.25,0.578 0.484,1.203 0.687,1.781 l 0.875,2.281 h 1.594 l -1.969,-4.812 4,-4.907 h -1.687 l -1.672,2.157 c -0.406,0.562 -0.844,1.109 -1.266,1.625 h -0.078 c -0.203,-0.563 -0.359,-1.047 -0.562,-1.625 l -0.844,-2.157 h -1.578 l 1.828,4.563 z"
         style="fill:#000000;fill-opacity:1;fill-rule:nonzero;stroke:none"
         id="path2190"
         inkscape:connector-curvature="0" /><path
         d="m 50.879,137.789 c 1.219,0 2.422,-0.672 3.375,-1.672 h 0.062 l -0.14,1.438 h 1.265 l 1.954,-9.719 h -1.25 l -0.391,1.219 h -0.078 c -0.453,-0.875 -1.297,-1.453 -2.328,-1.453 -2.703,0 -5.266,2.937 -5.266,6.671 0,2.282 1.094,3.516 2.797,3.516 z m 0.562,-1.297 c -1.078,0 -1.765,-0.781 -1.765,-2.453 0,-2.687 1.781,-5.141 3.719,-5.141 0.75,0 1.421,0.391 1.984,1.422 l -0.891,4.328 c -0.953,1.266 -2.031,1.844 -3.047,1.844 z"
         style="fill:#000000;fill-opacity:1;fill-rule:nonzero;stroke:none"
         id="path2192"
         inkscape:connector-curvature="0" /><path
         d="m 192.895,137.344 c 2.671,0 5.234,-2.938 5.234,-6.672 0,-2.281 -1.078,-3.516 -2.797,-3.516 -1.203,0 -2.328,0.641 -3.312,1.406 h -0.032 l 0.453,-1.89 0.766,-3.797 h -1.547 l -2.828,14.234 h 1.281 l 0.375,-1.218 h 0.078 c 0.454,0.875 1.282,1.453 2.329,1.453 z m -0.063,-1.297 c -0.766,0 -1.422,-0.422 -1.984,-1.438 l 0.937,-4.593 c 0.906,-0.985 2.078,-1.563 2.985,-1.563 1.078,0 1.781,0.797 1.781,2.438 0,2.703 -1.781,5.156 -3.719,5.156 z"
         style="fill:#000000;fill-opacity:1;fill-rule:nonzero;stroke:none"
         id="path2194"
         inkscape:connector-curvature="0" /><path
         d="m 63.988,106.785 h 1.563 l 2.344,-11.781 h 3.828 l 0.25,-1.344 h -9.172 l -0.266,1.344 h 3.797 z"
         style="fill:#000000;fill-opacity:1;fill-rule:nonzero;stroke:none"
         id="path2196"
         inkscape:connector-curvature="0" /><path
         d="m 70.328,110.785 h 4.313 v -0.828 h -1.563 v -6.828 h -0.781 c -0.406,0.25 -0.922,0.437 -1.625,0.562 v 0.657 h 1.406 v 5.609 h -1.75 z"
         style="fill:#000000;fill-opacity:1;fill-rule:nonzero;stroke:none"
         id="path2198"
         inkscape:connector-curvature="0" /><path
         d="m 90.988,106.785 h 1.563 l 2.344,-11.781 h 3.828 l 0.25,-1.344 h -9.172 l -0.266,1.344 h 3.797 z"
         style="fill:#000000;fill-opacity:1;fill-rule:nonzero;stroke:none"
         id="path2200"
         inkscape:connector-curvature="0" /><path
         d="m 96.859,110.785 h 4.938 v -0.859 H 99.5 c -0.391,0 -0.859,0.031 -1.281,0.062 1.859,-1.89 3.203,-3.265 3.203,-4.765 0,-1.344 -0.891,-2.235 -2.297,-2.235 -0.984,0 -1.672,0.469 -2.313,1.188 l 0.579,0.531 c 0.421,-0.5 0.968,-0.906 1.609,-0.906 0.969,0 1.453,0.609 1.453,1.484 0,1.235 -1.312,2.656 -3.594,4.891 z"
         style="fill:#000000;fill-opacity:1;fill-rule:nonzero;stroke:none"
         id="path2202"
         inkscape:connector-curvature="0" /><path
         d="m 119.488,106.785 h 1.563 l 2.344,-11.781 h 3.828 l 0.25,-1.344 h -9.172 l -0.266,1.344 h 3.797 z"
         style="fill:#000000;fill-opacity:1;fill-rule:nonzero;stroke:none"
         id="path2204"
         inkscape:connector-curvature="0" /><path
         d="m 127.703,110.926 c 1.406,0 2.531,-0.828 2.531,-2.188 0,-1.047 -0.734,-1.718 -1.656,-1.937 v -0.047 c 0.828,-0.313 1.391,-0.906 1.391,-1.828 0,-1.235 -0.969,-1.938 -2.297,-1.938 -0.906,0 -1.61,0.407 -2.203,0.953 l 0.531,0.625 c 0.453,-0.437 1,-0.765 1.641,-0.765 0.812,0 1.312,0.469 1.312,1.203 0,0.797 -0.547,1.422 -2.172,1.422 v 0.765 c 1.828,0 2.453,0.61 2.453,1.516 0,0.859 -0.656,1.391 -1.593,1.391 -0.891,0 -1.5,-0.422 -1.953,-0.891 l -0.5,0.641 c 0.515,0.562 1.296,1.078 2.515,1.078 z"
         style="fill:#000000;fill-opacity:1;fill-rule:nonzero;stroke:none"
         id="path2206"
         inkscape:connector-curvature="0" /><path
         d="m 147.988,106.785 h 1.563 l 2.344,-11.781 h 3.828 l 0.25,-1.344 h -9.172 l -0.266,1.344 h 3.797 z"
         style="fill:#000000;fill-opacity:1;fill-rule:nonzero;stroke:none"
         id="path2208"
         inkscape:connector-curvature="0" /><path
         d="m 154.625,107.879 1.781,-2.609 c 0.219,-0.375 0.438,-0.719 0.625,-1.079 h 0.047 c -0.016,0.407 -0.062,1.079 -0.062,1.469 v 2.219 z m 2.391,2.906 h 0.937 v -2.109 H 159 v -0.797 h -1.047 v -4.75 h -1.094 l -3.281,4.891 v 0.656 h 3.438 z"
         style="fill:#000000;fill-opacity:1;fill-rule:nonzero;stroke:none"
         id="path2210"
         inkscape:connector-curvature="0" /><path
         d="m 176.488,106.785 h 1.563 l 2.344,-11.781 h 3.828 l 0.25,-1.344 h -9.172 l -0.266,1.344 h 3.797 z"
         style="fill:#000000;fill-opacity:1;fill-rule:nonzero;stroke:none"
         id="path2212"
         inkscape:connector-curvature="0" /><path
         d="m 184.688,110.926 c 1.328,0 2.578,-0.938 2.578,-2.594 0,-1.656 -1.078,-2.391 -2.36,-2.391 -0.468,0 -0.828,0.11 -1.187,0.313 l 0.203,-2.266 h 2.969 v -0.859 h -3.844 l -0.25,3.687 0.531,0.329 c 0.453,-0.297 0.781,-0.454 1.313,-0.454 0.984,0 1.609,0.61 1.609,1.672 0,1.063 -0.734,1.735 -1.656,1.735 -0.906,0 -1.485,-0.422 -1.938,-0.875 l -0.484,0.656 c 0.531,0.531 1.281,1.047 2.516,1.047 z"
         style="fill:#000000;fill-opacity:1;fill-rule:nonzero;stroke:none"
         id="path2214"
         inkscape:connector-curvature="0" /><path
         d="m 0,22.953 h 1.547 l 1.672,-8.484 h 1.984 l 0.25,-1.235 H 3.5 l 0.328,-1.656 c 0.219,-1.125 0.766,-1.844 1.625,-1.844 0.485,0 0.844,0.125 1.125,0.297 L 7.094,8.953 C 6.641,8.672 6.062,8.469 5.359,8.469 c -1.64,0 -2.671,1.203 -3.078,3.14 l -0.328,1.625 -1.297,0.094 -0.218,1.141 h 1.265 z"
         style="fill:#000000;fill-opacity:1;fill-rule:nonzero;stroke:none"
         id="path2216"
         inkscape:connector-curvature="0" /><path
         d="m 7.285,26.516 1,-0.407 c -0.578,-1.515 -0.89,-3.64 -0.89,-5.703 0,-4.328 1.453,-8.734 4.281,-11.515 L 10.754,8.328 c -2.953,2.844 -4.656,7.11 -4.656,12.047 0,2.281 0.5,4.516 1.187,6.141 z"
         style="fill:#000000;fill-opacity:1;fill-rule:nonzero;stroke:none"
         id="path2218"
         inkscape:connector-curvature="0" /><path
         d="m 9.746,22.953 h 1.688 l 1.89,-2.297 c 0.5,-0.625 0.953,-1.187 1.375,-1.765 h 0.078 c 0.25,0.578 0.485,1.203 0.688,1.781 l 0.875,2.281 h 1.594 l -1.969,-4.812 4,-4.907 h -1.688 l -1.672,2.157 c -0.406,0.562 -0.843,1.109 -1.265,1.625 h -0.078 c -0.203,-0.563 -0.36,-1.047 -0.563,-1.625 l -0.844,-2.157 h -1.578 l 1.828,4.563 z"
         style="fill:#000000;fill-opacity:1;fill-rule:nonzero;stroke:none"
         id="path2220"
         inkscape:connector-curvature="0" /><path
         d="m 19.234,26.516 c 2.969,-2.86 4.688,-7.125 4.688,-12.063 0,-2.281 -0.5,-4.515 -1.203,-6.125 l -1,0.391 c 0.578,1.515 0.875,3.656 0.875,5.687 0,4.36 -1.438,8.75 -4.25,11.532 z"
         style="fill:#000000;fill-opacity:1;fill-rule:nonzero;stroke:none"
         id="path2222"
         inkscape:connector-curvature="0" /><path
         d="m 69.953,37.258 c 2.188,0 2.953,-1.922 3.485,-4.531 0.578,-2.938 0.609,-6.922 1.171,-9.86 0.407,-2.047 0.907,-3.328 1.985,-3.328 0.297,0 0.562,0.047 0.718,0.078 l 0.329,-1.172 c -0.188,-0.078 -0.563,-0.125 -0.953,-0.125 -2.219,0 -2.969,1.985 -3.469,4.563 -0.578,2.922 -0.578,6.937 -1.188,9.844 -0.39,2.093 -0.843,3.328 -1.984,3.328 -0.266,0 -0.5,-0.032 -0.656,-0.078 l -0.313,1.14 c 0.172,0.11 0.5,0.141 0.875,0.141 z"
         style="fill:#000000;fill-opacity:1;fill-rule:nonzero;stroke:none"
         id="path2224"
         inkscape:connector-curvature="0" /><path
         d="m 78.344,38.258 c 0.797,0 1.578,-0.438 2.203,-1.094 h 0.031 l -0.094,0.938 h 0.828 l 1.266,-6.313 h -0.812 l -0.25,0.781 h -0.047 c -0.313,-0.562 -0.844,-0.937 -1.531,-0.937 -1.75,0 -3.422,1.906 -3.422,4.344 0,1.468 0.718,2.281 1.828,2.281 z m 0.359,-0.844 c -0.703,0 -1.141,-0.516 -1.141,-1.594 0,-1.75 1.157,-3.343 2.422,-3.343 0.485,0 0.922,0.25 1.282,0.921 l -0.578,2.813 c -0.61,0.828 -1.313,1.203 -1.985,1.203 z"
         style="fill:#000000;fill-opacity:1;fill-rule:nonzero;stroke:none"
         id="path2226"
         inkscape:connector-curvature="0" /><path
         d="m 82.293,26.258 c 1.734,0 3.406,-1.906 3.406,-4.344 0,-1.484 -0.703,-2.281 -1.828,-2.281 -0.781,0 -1.5,0.406 -2.141,0.922 h -0.031 l 0.297,-1.235 0.5,-2.468 h -1 l -1.844,9.25 h 0.828 l 0.25,-0.797 h 0.047 c 0.297,0.578 0.828,0.953 1.516,0.953 z m -0.047,-0.844 c -0.484,0 -0.922,-0.281 -1.281,-0.937 l 0.609,-2.985 c 0.578,-0.64 1.344,-1.015 1.938,-1.015 0.703,0 1.156,0.515 1.156,1.578 0,1.765 -1.156,3.359 -2.422,3.359 z"
         style="fill:#000000;fill-opacity:1;fill-rule:nonzero;stroke:none"
         id="path2228"
         inkscape:connector-curvature="0" /><path
         d="m 91.324,34.102 h 1.547 l 1.672,-8.485 h 1.984 l 0.25,-1.234 h -1.953 l 0.328,-1.656 c 0.219,-1.125 0.766,-1.844 1.625,-1.844 0.485,0 0.844,0.125 1.125,0.297 l 0.516,-1.078 c -0.453,-0.282 -1.031,-0.485 -1.734,-0.485 -1.641,0 -2.672,1.203 -3.079,3.141 l -0.328,1.625 -1.297,0.094 -0.218,1.14 h 1.265 z"
         style="fill:#000000;fill-opacity:1;fill-rule:nonzero;stroke:none"
         id="path2230"
         inkscape:connector-curvature="0" /><path
         d="m 98.609,37.664 1,-0.406 c -0.578,-1.516 -0.89,-3.641 -0.89,-5.703 0,-4.328 1.453,-8.735 4.281,-11.516 l -0.922,-0.562 c -2.953,2.843 -4.656,7.109 -4.656,12.046 0,2.282 0.5,4.516 1.187,6.141 z"
         style="fill:#000000;fill-opacity:1;fill-rule:nonzero;stroke:none"
         id="path2232"
         inkscape:connector-curvature="0" /><path
         d="m 101.07,34.102 h 1.688 l 1.89,-2.297 c 0.5,-0.625 0.954,-1.188 1.375,-1.766 h 0.079 c 0.25,0.578 0.484,1.203 0.687,1.781 l 0.875,2.282 h 1.594 l -1.969,-4.813 4,-4.906 h -1.687 l -1.672,2.156 c -0.407,0.563 -0.844,1.109 -1.266,1.625 h -0.078 c -0.203,-0.562 -0.359,-1.047 -0.563,-1.625 l -0.843,-2.156 h -1.578 l 1.828,4.562 z"
         style="fill:#000000;fill-opacity:1;fill-rule:nonzero;stroke:none"
         id="path2234"
         inkscape:connector-curvature="0" /><path
         d="m 110.559,37.664 c 2.968,-2.859 4.687,-7.125 4.687,-12.062 0,-2.282 -0.5,-4.516 -1.203,-6.125 l -1,0.39 c 0.578,1.516 0.875,3.656 0.875,5.688 0,4.359 -1.438,8.75 -4.25,11.531 z"
         style="fill:#000000;fill-opacity:1;fill-rule:nonzero;stroke:none"
         id="path2236"
         inkscape:connector-curvature="0" /><path
         d="m 119.98,34.336 c 1.219,0 2.422,-0.672 3.375,-1.672 h 0.063 l -0.141,1.438 h 1.266 l 2.875,-14.235 h -1.531 l -0.766,3.797 -0.312,1.891 h -0.094 c -0.453,-0.86 -1.235,-1.407 -2.266,-1.407 -2.703,0 -5.265,2.938 -5.265,6.672 0,2.282 1.093,3.516 2.796,3.516 z m 0.563,-1.297 c -1.078,0 -1.766,-0.781 -1.766,-2.453 0,-2.688 1.782,-5.141 3.719,-5.141 0.75,0 1.422,0.391 1.984,1.422 l -0.89,4.328 c -0.969,1.266 -2.031,1.844 -3.047,1.844 z"
         style="fill:#000000;fill-opacity:1;fill-rule:nonzero;stroke:none"
         id="path2238"
         inkscape:connector-curvature="0" /><path
         d="m 126.23,34.102 h 1.688 l 1.891,-2.297 c 0.5,-0.625 0.953,-1.188 1.375,-1.766 h 0.078 c 0.25,0.578 0.484,1.203 0.687,1.781 l 0.875,2.282 h 1.594 l -1.969,-4.813 4,-4.906 h -1.687 l -1.672,2.156 c -0.406,0.563 -0.844,1.109 -1.266,1.625 h -0.078 c -0.203,-0.562 -0.359,-1.047 -0.562,-1.625 l -0.844,-2.156 h -1.578 l 1.828,4.562 z"
         style="fill:#000000;fill-opacity:1;fill-rule:nonzero;stroke:none"
         id="path2240"
         inkscape:connector-curvature="0" /><path
         d="m 146.344,26.758 c 0.812,0 1.718,-0.531 2.406,-1.781 l -0.891,-0.563 c -0.437,0.844 -0.89,1.203 -1.468,1.203 -1.063,0 -1.922,-1.703 -3.407,-1.703 -0.828,0 -1.718,0.547 -2.375,1.781 l 0.86,0.563 c 0.437,-0.844 0.89,-1.203 1.469,-1.203 1.062,0 1.953,1.703 3.406,1.703 z m 0,4.281 c 0.812,0 1.718,-0.531 2.406,-1.781 l -0.891,-0.563 c -0.437,0.844 -0.89,1.203 -1.468,1.203 -1.063,0 -1.922,-1.703 -3.407,-1.703 -0.828,0 -1.718,0.547 -2.375,1.782 l 0.86,0.562 c 0.437,-0.844 0.89,-1.203 1.469,-1.203 1.062,0 1.953,1.703 3.406,1.703 z"
         style="fill:#000000;fill-opacity:1;fill-rule:nonzero;stroke:none"
         id="path2242"
         inkscape:connector-curvature="0" /><path
         d="m 153.945,36.508 h 9.157 V 35.18 h -7.172 l -0.032,-0.078 4.266,-6.219 -4.141,-6.125 -0.015,-0.078 h 6.578 v -1.344 h -8.422 v 1.047 l 4.406,6.344 -4.625,6.75 z"
         style="fill:#000000;fill-opacity:1;fill-rule:nonzero;stroke:none"
         id="path2244"
         inkscape:connector-curvature="0" /><path
         d="m 163.43,38.102 h 1 l 1.265,-6.313 h -1.015 z m 2.078,-7.625 c 0.406,0 0.75,-0.313 0.75,-0.75 0,-0.375 -0.297,-0.594 -0.641,-0.594 -0.39,0 -0.75,0.328 -0.75,0.75 0,0.375 0.297,0.594 0.641,0.594 z"
         style="fill:#000000;fill-opacity:1;fill-rule:nonzero;stroke:none"
         id="path2246"
         inkscape:connector-curvature="0" /><path
         d="m 166.293,26.258 c 1.641,0 3.141,-1.25 3.141,-3.219 0,-1.453 -0.938,-2.187 -2.188,-2.187 -0.422,0 -0.781,0.109 -1.078,0.265 l 0.672,-2.437 h 3.015 l 0.188,-0.875 h -3.906 l -1.032,3.922 0.422,0.343 c 0.547,-0.297 0.86,-0.422 1.391,-0.422 0.906,0 1.5,0.5 1.5,1.563 0,1.344 -0.969,2.219 -2.047,2.219 -0.969,0 -1.469,-0.547 -1.859,-1.11 l -0.657,0.532 c 0.5,0.781 1.313,1.406 2.438,1.406 z"
         style="fill:#000000;fill-opacity:1;fill-rule:nonzero;stroke:none"
         id="path2248"
         inkscape:connector-curvature="0" /><path
         d="m 175.156,34.102 h 1.563 l 2.343,-11.782 h 3.829 l 0.25,-1.343 h -9.172 l -0.266,1.343 h 3.797 z"
         style="fill:#000000;fill-opacity:1;fill-rule:nonzero;stroke:none"
         id="path2250"
         inkscape:connector-curvature="0" /><path
         d="m 182.449,38.102 h 1 l 1.266,-6.313 h -1.016 z m 2.078,-7.625 c 0.407,0 0.75,-0.313 0.75,-0.75 0,-0.375 -0.297,-0.594 -0.64,-0.594 -0.391,0 -0.75,0.328 -0.75,0.75 0,0.375 0.297,0.594 0.64,0.594 z"
         style="fill:#000000;fill-opacity:1;fill-rule:nonzero;stroke:none"
         id="path2252"
         inkscape:connector-curvature="0" /></g></g></svg>